<?xml version="1.0" standalone="no"?><!DOCTYPE svg PUBLIC "-//W3C//DTD SVG 1.1//EN" "http://www.w3.org/Graphics/SVG/1.1/DTD/svg11.dtd"><svg t="1769163210779" class="icon" viewBox="0 0 1024 1024" version="1.1" xmlns="http://www.w3.org/2000/svg" p-id="6767" width="64" height="64" xmlns:xlink="http://www.w3.org/1999/xlink"><path d="M789.333333 896v64h-554.666666V896h554.666666z m106.666667-106.666667v-554.666666A106.666667 106.666667 0 0 0 789.333333 128h-554.666666A106.666667 106.666667 0 0 0 128 234.666667v554.666666A106.666667 106.666667 0 0 0 234.666667 896v64l-8.789334-0.213333a170.709333 170.709333 0 0 1-161.706666-161.664L64 789.333333v-554.666666a170.666667 170.666667 0 0 1 170.666667-170.666667h554.666666a170.666667 170.666667 0 0 1 170.666667 170.666667v554.666666a170.666667 170.666667 0 0 1-161.877333 170.453334l-8.789334 0.213333V896a106.666667 106.666667 0 0 0 106.666667-106.666667z" fill="#8158DD" p-id="6768"></path><path d="M128 128m85.333333 0l596.48 0q85.333333 0 85.333334 85.333333l0 596.48q0 85.333333-85.333334 85.333334l-596.48 0q-85.333333 0-85.333333-85.333334l0-596.48q0-85.333333 85.333333-85.333333Z" fill="#E1D3FF" p-id="6769"></path><path d="M575.786667 545.365333V317.269333a74.666667 74.666667 0 0 1 44.714666-68.394666l104.32-45.653334a32 32 0 0 1 25.685334 58.581334l-104.362667 45.653333a10.666667 10.666667 0 0 0-6.4 9.813333v228.096a32 32 0 0 1-64 0z" fill="#8158DD" p-id="6770"></path><path d="M576.170667 530.688a64.426667 64.426667 0 1 0-64.426667 64.426667v64l-6.570667-0.213334a128.384 128.384 0 1 1 134.997334-128.213333l-0.213334 6.656a128.426667 128.426667 0 0 1-128.170666 121.770667v-64a64.426667 64.426667 0 0 0 64.426666-64.426667z" fill="#8158DD" p-id="6771"></path><path d="M579.072 530.773333a67.285333 67.285333 0 1 1-134.570667 0 67.285333 67.285333 0 0 1 134.570667 0z" fill="#FFFFFF" p-id="6772"></path><path d="M797.013333 529.834667a27.733333 27.733333 0 0 1 55.466667 0 340.736 340.736 0 0 1-184.234667 302.677333 27.733333 27.733333 0 0 1-25.514666-49.237333 285.226667 285.226667 0 0 0 154.24-253.44zM391.893333 210.773333a27.733333 27.733333 0 0 1 19.498667 51.925334 285.44 285.44 0 0 0-184.448 251.136l-0.853333 5.546666a27.733333 27.733333 0 0 1-54.570667-8.618666l0.938667-12.8a340.992 340.992 0 0 1 219.434666-287.146667z" fill="#8158DD" p-id="6773"></path><path d="M716.928 506.709333a27.733333 27.733333 0 0 1 26.666667 28.714667 231.978667 231.978667 0 0 1-106.88 186.709333 27.733333 27.733333 0 0 1-29.909334-46.677333 176.469333 176.469333 0 0 0 81.365334-142.08 27.733333 27.733333 0 0 1 28.757333-26.666667z m-378.709333-13.44a27.733333 27.733333 0 0 1-54.485334-10.368l54.485334 10.368z m82.517333-180.224a27.733333 27.733333 0 1 1 21.76 51.029334 176.938667 176.938667 0 0 0-104.277333 129.194666l-27.264-5.205333-27.221334-5.162667a232.448 232.448 0 0 1 136.96-169.813333z" fill="#8158DD" p-id="6774"></path></svg>