<?xml version="1.0" standalone="no"?><!DOCTYPE svg PUBLIC "-//W3C//DTD SVG 1.1//EN" "http://www.w3.org/Graphics/SVG/1.1/DTD/svg11.dtd"><svg t="1769151541752" class="icon" viewBox="0 0 1024 1024" version="1.1" xmlns="http://www.w3.org/2000/svg" p-id="9589" width="64" height="64" xmlns:xlink="http://www.w3.org/1999/xlink"><path d="M919.322 282.991L741.533 104.706a29.474 29.474 0 0 0-15.294-8.159 29.725 29.725 0 0 0-11.319 0 29.482 29.482 0 0 0-15.294 8.159l-0.018 0.019-148.12 148.534-0.019 0.018-0.018 0.019-386.797 387.875c-0.078 0.076-0.154 0.154-0.231 0.231l-0.015 0.015-0.02 0.021c-0.346 0.347-0.683 0.704-1.013 1.069l-0.068 0.077c-0.305 0.34-0.602 0.686-0.892 1.041l-0.139 0.175c-0.255 0.318-0.505 0.639-0.747 0.968-0.073 0.099-0.144 0.201-0.216 0.3-0.206 0.286-0.407 0.574-0.604 0.868a33.52 33.52 0 0 0-0.286 0.443c-0.159 0.249-0.318 0.5-0.469 0.754-0.119 0.198-0.231 0.397-0.345 0.597-0.119 0.21-0.237 0.419-0.351 0.631-0.135 0.252-0.264 0.507-0.391 0.761-0.083 0.166-0.167 0.332-0.247 0.5-0.147 0.31-0.287 0.623-0.423 0.937-0.053 0.122-0.107 0.243-0.158 0.366-0.154 0.368-0.298 0.739-0.436 1.112l-0.089 0.235c-0.153 0.422-0.294 0.848-0.428 1.276-0.013 0.041-0.027 0.081-0.039 0.122-0.142 0.463-0.272 0.929-0.392 1.397l-0.013 0.046-0.008 0.032c-0.025 0.1-0.052 0.201-0.076 0.301L96.996 890.647a29.759 29.759 0 0 0-0.677 3.291c-0.004 0.022-0.006 0.046-0.009 0.068-0.066 0.451-0.122 0.905-0.167 1.361l-0.027 0.318c-0.031 0.365-0.06 0.731-0.079 1.099-0.01 0.191-0.013 0.382-0.019 0.573-0.008 0.279-0.018 0.558-0.019 0.839-0.001 0.279 0.006 0.557 0.013 0.836 0.005 0.191 0.007 0.382 0.016 0.574 0.017 0.368 0.043 0.734 0.072 1.099 0.009 0.107 0.015 0.213 0.025 0.319a30.658 30.658 0 0 0 0.166 1.429c0.195 1.382 0.489 2.739 0.872 4.067l0.056 0.202c0.081 0.271 0.168 0.54 0.256 0.81 0.061 0.188 0.121 0.375 0.186 0.561a34.41 34.41 0 0 0 0.666 1.732c0.149 0.356 0.305 0.708 0.467 1.055l0.059 0.128a29.533 29.533 0 0 0 3.742 5.97l0.021 0.026c0.269 0.331 0.544 0.656 0.826 0.975l0.178 0.2c0.228 0.253 0.46 0.501 0.696 0.747 0.1 0.104 0.199 0.208 0.3 0.31 0.19 0.191 0.384 0.378 0.579 0.564 0.144 0.137 0.285 0.277 0.432 0.411 0.078 0.072 0.158 0.138 0.237 0.209a29.64 29.64 0 0 0 2.545 2.045c0.031 0.022 0.062 0.046 0.093 0.067 0.303 0.215 0.61 0.424 0.922 0.628l0.104 0.067c0.318 0.206 0.64 0.408 0.967 0.603l0.011 0.007a29.145 29.145 0 0 0 2.823 1.475c0.169 0.077 0.337 0.156 0.507 0.23 0.188 0.082 0.378 0.159 0.568 0.237 0.269 0.111 0.541 0.218 0.814 0.321 0.13 0.048 0.259 0.098 0.391 0.145 0.407 0.148 0.819 0.287 1.232 0.416l0.035 0.011c2.2 0.684 4.492 1.113 6.834 1.265l0.236 0.015c0.551 0.032 1.104 0.053 1.66 0.053l0.022-0.001 0.022 0.001c0.039 0 0.076-0.005 0.115-0.005a29.353 29.353 0 0 0 4.165-0.329c0.296-0.044 0.593-0.083 0.886-0.136a29.565 29.565 0 0 0 1.933-0.409l0.032-0.008 0.237-0.058 238.89-59.31a29.437 29.437 0 0 0 3.103-0.928l0.051-0.02c0.436-0.158 0.87-0.325 1.299-0.504 0.092-0.038 0.182-0.08 0.273-0.119 0.347-0.148 0.694-0.301 1.036-0.463 0.156-0.073 0.306-0.152 0.46-0.228 0.271-0.135 0.543-0.269 0.81-0.412 0.215-0.115 0.425-0.236 0.636-0.356 0.2-0.113 0.401-0.225 0.599-0.344 0.272-0.162 0.538-0.332 0.804-0.503 0.133-0.085 0.268-0.168 0.399-0.256 0.331-0.22 0.654-0.448 0.973-0.681 0.066-0.048 0.133-0.093 0.198-0.142a29.52 29.52 0 0 0 3.562-3.097l385.026-386.098 0.019-0.018a0.315 0.315 0 0 1 0.018-0.019L919.3 325.027l0.019-0.018c11.574-11.6 11.574-30.415 0.003-42.018zM750.211 410.55L614.328 274.288 720.58 167.739l135.884 136.262L750.211 410.55zM349.879 811.998l-183.35 45.521 45.546-179.858L572.422 316.31l135.884 136.262-358.427 359.426z m459.595 56.571H513.159c-16.365 0-29.632 13.304-29.632 29.714s13.267 29.714 29.632 29.714h296.315c16.365 0 29.632-13.304 29.632-29.714s-13.267-29.714-29.632-29.714z" fill="#37c059" p-id="9590"></path></svg>