<?xml version="1.0" standalone="no"?><!DOCTYPE svg PUBLIC "-//W3C//DTD SVG 1.1//EN" "http://www.w3.org/Graphics/SVG/1.1/DTD/svg11.dtd"><svg t="1769419063758" class="icon" viewBox="0 0 1024 1024" version="1.1" xmlns="http://www.w3.org/2000/svg" p-id="4760" width="64" height="64" xmlns:xlink="http://www.w3.org/1999/xlink"><path d="M786.602667 678.4l116.394666 297.870222h-61.667555l-27.363556-72.135111H691.768889l-25.6 72.135111h-61.667556l116.394667-297.870222h65.706667z m-33.166223 45.966222h-1.137777c0 1.706667-1.137778 5.802667-2.901334 11.605334-1.763556 7.566222-3.527111 12.856889-4.096 15.758222-1.137778 1.706667-13.937778 38.4-38.968889 109.340444h96.597334c-26.168889-72.135111-39.594667-108.771556-40.163556-110.535111a140.288 140.288 0 0 1-9.329778-26.168889z m182.727112 251.904v-297.870222h57.571555v297.870222h-57.571555z m-429.966223-33.166222c-236.259556 0-428.259556-194.275556-428.259555-432.867556 0-238.535111 192-432.298667 428.259555-432.298666 236.202667 0 428.202667 193.763556 428.202667 432.355555a38.115556 38.115556 0 0 0 40.163556 37.205334 38.286222 38.286222 0 0 0 37.205333-37.262223C1011.768889 229.262222 784.896 0 505.571556 0 226.304 0 0 229.262222 0 510.293333c0 281.6 226.929778 510.236444 506.197333 510.236445a38.968889 38.968889 0 0 0 38.968889-39.025778 38.513778 38.513778 0 0 0-38.968889-38.4z m217.031111-524.8l-279.324444-158.208c-18.033778-9.898667-35.441778-15.758222-52.337778-15.758222-37.831111 0-76.8 27.932444-76.8 89.031111v317.098667c0 62.236444 38.4 89.031111 76.8 89.031111 16.896 0 34.304-4.664889 52.337778-15.701334l278.755556-158.264889c31.402667-18.033778 50.574222-44.202667 50.574222-73.329777 0-29.070222-18.602667-55.864889-50.062222-73.898667" fill="#8C91B6" p-id="4761"></path></svg>